<svg xmlns="http://www.w3.org/2000/svg" viewBox="0 0 32 32" width="32" height="32">
  <defs>
    <linearGradient id="houseGradient" x1="0%" y1="0%" x2="100%" y2="100%">
      <stop offset="0%" style="stop-color:#4A90E2;stop-opacity:1" />
      <stop offset="100%" style="stop-color:#2E5BBA;stop-opacity:1" />
    </linearGradient>
  </defs>
  
  <!-- Крыша -->
  <path d="M16 4 L28 14 L26 14 L26 16 L24 16 L24 14 L16 8 L8 14 L8 16 L6 16 L6 14 L4 14 Z" fill="#8B4513"/>
  
  <!-- Основание дома -->
  <rect x="8" y="14" width="16" height="14" fill="url(#houseGradient)"/>
  
  <!-- Дверь -->
  <rect x="13" y="20" width="6" height="8" fill="#654321"/>
  <circle cx="17" cy="24" r="0.5" fill="#FFD700"/>
  
  <!-- Окна -->
  <rect x="10" y="17" width="3" height="3" fill="#87CEEB" stroke="#2E5BBA" stroke-width="0.5"/>
  <rect x="19" y="17" width="3" height="3" fill="#87CEEB" stroke="#2E5BBA" stroke-width="0.5"/>
  
  <!-- Разделители окон -->
  <line x1="11.5" y1="17" x2="11.5" y2="20" stroke="#2E5BBA" stroke-width="0.3"/>
  <line x1="10" y1="18.5" x2="13" y2="18.5" stroke="#2E5BBA" stroke-width="0.3"/>
  <line x1="20.5" y1="17" x2="20.5" y2="20" stroke="#2E5BBA" stroke-width="0.3"/>
  <line x1="19" y1="18.5" x2="22" y2="18.5" stroke="#2E5BBA" stroke-width="0.3"/>
  
  <!-- Модульные линии (показывают модульность) -->
  <line x1="16" y1="14" x2="16" y2="28" stroke="#1E3A8A" stroke-width="0.5" opacity="0.7"/>
</svg>